<svg xmlns="http://www.w3.org/2000/svg" viewBox="0 0 184.69 39.13"><defs><style>.cls-1{fill:#868589;}.cls-2{fill:#008959;}.cls-3{fill:#808082;fill-rule:evenodd;}</style></defs><title>Logo SD</title><g id="Capa_2" data-name="Capa 2"><g id="Capa_1-2" data-name="Capa 1"><g id="Capa_1-2-2" data-name="Capa 1-2"><path class="cls-1" d="M174.79,25.88c0-.46-.06-1-.08-1.49s0-1.1,0-1.67V16.51a10.51,10.51,0,0,0-.38-3,6.67,6.67,0,0,0-1.27-2.45,5.9,5.9,0,0,0-2.37-1.63,10,10,0,0,0-3.63-.62h-.14a15.92,15.92,0,0,0-2.76.25,14.85,14.85,0,0,0-2.27.59,9.56,9.56,0,0,0-1.6.72l1,3.58a6.37,6.37,0,0,1,1.36-.67,9.89,9.89,0,0,1,3.44-.68,7.7,7.7,0,0,1,.83.05,2.67,2.67,0,0,1,.79.18,2.54,2.54,0,0,1,1,.56,2.1,2.1,0,0,1,.46.74,2.46,2.46,0,0,1,.12.76v.29a20.35,20.35,0,0,0-2.34.1,16.55,16.55,0,0,0-1.85.29,10.06,10.06,0,0,0-3.22,1.26A6.06,6.06,0,0,0,159.81,19a6.28,6.28,0,0,0-.73,3,5.53,5.53,0,0,0,.39,2.05,5.09,5.09,0,0,0,1.1,1.75A5,5,0,0,0,162.33,27a6,6,0,0,0,2.37.45,7.17,7.17,0,0,0,2.25-.33,6,6,0,0,0,.59-.23,5.43,5.43,0,0,0,2.15-1.61h.11l.32,1.79H175A5.89,5.89,0,0,1,174.79,25.88Zm-5.36-5.32v.49a1.86,1.86,0,0,1-.09.47,3,3,0,0,1-.59,1,2.94,2.94,0,0,1-1.82,1h-.4a2.4,2.4,0,0,1-1.09-.23,1.8,1.8,0,0,1-.76-.71,2.54,2.54,0,0,1-.29-1.18,2.35,2.35,0,0,1,.68-1.7,4.1,4.1,0,0,1,1.8-.88h.06a11.2,11.2,0,0,1,2.52-.22Z"/><path class="cls-1" d="M132,11.33h-.07A5.32,5.32,0,0,0,130.8,10a4.75,4.75,0,0,0-1.56-.89A5.68,5.68,0,0,0,128,8.86a5.38,5.38,0,0,1-.88,0,7.35,7.35,0,0,0-5.55,2.55,8.74,8.74,0,0,0-1.71,3,11.65,11.65,0,0,0-.64,3.88,11.19,11.19,0,0,0,.55,3.54,8.09,8.09,0,0,0,1.53,2.75,6.56,6.56,0,0,0,2.37,1.8,6.91,6.91,0,0,0,3,.63,7.41,7.41,0,0,0,1.41-.14,6.1,6.1,0,0,0,1.3-.46,5.3,5.3,0,0,0,2-1.73h.07v1.17a5.54,5.54,0,0,1-.6,2.68A3.72,3.72,0,0,1,129.26,30a4.59,4.59,0,0,1-1.15.39,6.42,6.42,0,0,1-1.16.11,11.21,11.21,0,0,1-2-.2,12.74,12.74,0,0,1-1.73-.51,9.43,9.43,0,0,1-1.36-.65l-1.06,4.2a9.38,9.38,0,0,0,1.82.77,14.18,14.18,0,0,0,2.15.46,15.89,15.89,0,0,0,2.28.16h1a10.23,10.23,0,0,0,1.53-.17,10.53,10.53,0,0,0,2.41-.68,7.74,7.74,0,0,0,2.12-1.31,6.75,6.75,0,0,0,1.55-2.12,9.4,9.4,0,0,0,.83-2.7,18.13,18.13,0,0,0,.25-3.21v-14a8.59,8.59,0,0,1,.06-1.29h-4.69Zm-.67,7.77v.76a3.34,3.34,0,0,1-.14.7,3,3,0,0,1-.6,1.17,2.6,2.6,0,0,1-1,.8,2.82,2.82,0,0,1-1.27.3,1.13,1.13,0,0,1-.26,0,2.9,2.9,0,0,1-1.67-.62,3.83,3.83,0,0,1-1.21-1.7,6.53,6.53,0,0,1-.47-2.43,7.44,7.44,0,0,1,.49-2.76,4.12,4.12,0,0,1,1.28-1.72A3.06,3.06,0,0,1,128,13h.26a2.84,2.84,0,0,1,2.34,1.16,3.9,3.9,0,0,1,.6,1.29,4.79,4.79,0,0,1,.11,1Z"/><path class="cls-1" d="M154.92,10.67a5.41,5.41,0,0,0-2-1.4,6.57,6.57,0,0,0-2.48-.46,6.77,6.77,0,0,0-1.95.29,6,6,0,0,0-1.54.71,6.36,6.36,0,0,0-1.15.92,5.44,5.44,0,0,0-.73.93H145l-.22-2.48h-4.69c0,.79.07,1.65.1,2.6s0,2,0,3.09V27.06h5.41V16.77a6.3,6.3,0,0,1,.05-.75,4.61,4.61,0,0,1,.16-.64,3.84,3.84,0,0,1,.53-1,2.88,2.88,0,0,1,.92-.78,2.63,2.63,0,0,1,1.29-.3,2.46,2.46,0,0,1,1.59.49,2.94,2.94,0,0,1,.88,1.34,6.75,6.75,0,0,1,.27,2V27h5.44V16.48a11.3,11.3,0,0,0-.47-3.42A6.79,6.79,0,0,0,154.92,10.67Z"/><path class="cls-1" d="M106.8,7.18a9.69,9.69,0,0,0-2.11-2.27,10.54,10.54,0,0,0-2.56-1.48,14.15,14.15,0,0,0-3.2-.86c-.31,0-.62-.1-1-.13a26.88,26.88,0,0,0-3.11-.16,38.6,38.6,0,0,0-3.94.13c-1.25.13-2.38.22-3.38.38V27c.66.1,1.51.18,2.52.25s2.23.11,3.62.12A25.67,25.67,0,0,0,97.93,27a18.47,18.47,0,0,0,2.06-.45,12.27,12.27,0,0,0,4.7-2.36,10.71,10.71,0,0,0,2.07-2.43,12.08,12.08,0,0,0,1.4-3.31,17.44,17.44,0,0,0,.53-4.26,14.85,14.85,0,0,0-.51-3.92A10.66,10.66,0,0,0,106.8,7.18Zm-4.88,12a6.58,6.58,0,0,1-4,3.33,9.66,9.66,0,0,1-3.11.43h-1a4.12,4.12,0,0,1-.86-.1V6.77a8.31,8.31,0,0,1,1-.15,12.79,12.79,0,0,1,1.52-.07A9.85,9.85,0,0,1,98,6.86a7.39,7.39,0,0,1,1.5.58,6,6,0,0,1,2.59,2.62,9.15,9.15,0,0,1,.91,4.3A10.47,10.47,0,0,1,101.92,19.18Z"/><rect class="cls-1" x="111.36" y="9.21" width="5.4" height="17.85"/><path class="cls-2" d="M83.05,25.59c0-.57,0-1.19-.06-1.85s0-1.33,0-2V1.11h-5.4v9.71h-.08a3.92,3.92,0,0,0-1.82-1.47,6.12,6.12,0,0,0-1.62-.46,11.69,11.69,0,0,0-1.18-.08,7.37,7.37,0,0,0-3,.63A7.47,7.47,0,0,0,67.4,11.3a8.63,8.63,0,0,0-1.71,3,12.62,12.62,0,0,0-.62,4,11.84,11.84,0,0,0,.62,3.78A9.18,9.18,0,0,0,67.28,25a7,7,0,0,0,2.41,1.84,6.65,6.65,0,0,0,2.91.65,7.16,7.16,0,0,0,1.53-.16q.32-.07.63-.18a5.54,5.54,0,0,0,1.87-1A5.81,5.81,0,0,0,78,24.45h.08l.24,2.62h4.81A8.76,8.76,0,0,1,83.05,25.59ZM77.57,19.1a3.75,3.75,0,0,1,0,.67,3.14,3.14,0,0,1-.12.61,3.54,3.54,0,0,1-.61,1.39,3,3,0,0,1-1.08.94,3.28,3.28,0,0,1-1.44.34h-.21a3.33,3.33,0,0,1-1.75-.59,3.88,3.88,0,0,1-1.28-1.71,7.54,7.54,0,0,1-.47-2.62,7.94,7.94,0,0,1,.25-2,5.3,5.3,0,0,1,.72-1.61A3.19,3.19,0,0,1,74.11,13h.24a3,3,0,0,1,1.5.38,3.23,3.23,0,0,1,1.08,1,3.75,3.75,0,0,1,.59,1.38v.49a4,4,0,0,1,0,.49Z"/><path class="cls-2" d="M33.93,24.39V16.51a10.51,10.51,0,0,0-.38-3,6.38,6.38,0,0,0-1.27-2.45A5.84,5.84,0,0,0,29.93,9.4a10.12,10.12,0,0,0-3.65-.62h-.14A15.89,15.89,0,0,0,23.39,9a16.24,16.24,0,0,0-2.28.59,11.38,11.38,0,0,0-1.59.72l1,3.58a7.8,7.8,0,0,1,1.36-.67,9.58,9.58,0,0,1,1.66-.49,8.9,8.9,0,0,1,1.78-.19,7.52,7.52,0,0,1,.82,0,2.8,2.8,0,0,1,.81.18,2.54,2.54,0,0,1,1,.56,2.1,2.1,0,0,1,.46.74,2.46,2.46,0,0,1,.12.76v.32a20.53,20.53,0,0,0-2.35.1,16.55,16.55,0,0,0-1.85.29,10.33,10.33,0,0,0-3.21,1.26A5.8,5.8,0,0,0,18.32,22a5.46,5.46,0,0,0,.37,2,5.15,5.15,0,0,0,2.86,3,6,6,0,0,0,2.37.45,7.39,7.39,0,0,0,2.19-.31,4.92,4.92,0,0,0,.6-.23,5.54,5.54,0,0,0,2.14-1.63H29l.32,1.79h4.87A9.27,9.27,0,0,1,34,25.93C34,25.42,34,24.92,33.93,24.39Zm-5.24-3.83v.49a.86.86,0,0,1-.09.47,3,3,0,0,1-.59,1,3.15,3.15,0,0,1-1,.73,3,3,0,0,1-.87.25,2.54,2.54,0,0,1-.39,0,2.47,2.47,0,0,1-1.1-.23,1.9,1.9,0,0,1-.75-.71,2.54,2.54,0,0,1-.29-1.18,2.35,2.35,0,0,1,.68-1.7,4.09,4.09,0,0,1,1.81-.88h0a10.69,10.69,0,0,1,2.59-.17Z"/><rect class="cls-2" x="37.32" y="1.11" width="5.39" height="25.95"/><path class="cls-2" d="M62.63,21.33V9.18H57.18v11.3A2.73,2.73,0,0,1,57,21a3,3,0,0,1-.53.89,2.69,2.69,0,0,1-2.17,1,2.4,2.4,0,0,1-1.55-.5A3,3,0,0,1,51.91,21a7.38,7.38,0,0,1-.29-2.24V9.18H46.16V19.69a12.09,12.09,0,0,0,.47,3.54,6.29,6.29,0,0,0,1.27,2.41A5,5,0,0,0,49.84,27a7.12,7.12,0,0,0,4.51.14,6.48,6.48,0,0,0,1.57-.75A5.93,5.93,0,0,0,57,25.46a5.67,5.67,0,0,0,.69-.92h.11l.24,2.52h4.71c0-.75-.09-1.6-.11-2.55S62.63,22.5,62.63,21.33Z"/><path class="cls-2" d="M13.75,14.3a13.62,13.62,0,0,0-3.5-1.84,24,24,0,0,1-2.56-1.09,4.5,4.5,0,0,1-1.47-1A2,2,0,0,1,5.77,9a2,2,0,0,1,.38-1.18A2.68,2.68,0,0,1,7.31,7a5.35,5.35,0,0,1,1.94-.33,11.73,11.73,0,0,1,2.13.2,12.38,12.38,0,0,1,1.69.45c.47.19.88.35,1.2.52l1.21-4.45a11.79,11.79,0,0,0-2.58-.9,15.6,15.6,0,0,0-3.54-.38,12.24,12.24,0,0,0-3.8.57A8.46,8.46,0,0,0,2.74,4.18,6.88,6.88,0,0,0,1,6.53,7.05,7.05,0,0,0,.32,9.46a6.16,6.16,0,0,0,.84,3.16A7.44,7.44,0,0,0,3.44,15a15,15,0,0,0,3.47,1.72,14.89,14.89,0,0,1,2.32,1,3.7,3.7,0,0,1,1.29,1.1,2.12,2.12,0,0,1,.41,1.35,2.2,2.2,0,0,1-.44,1.4,2.69,2.69,0,0,1-1.27.93,5.78,5.78,0,0,1-2.1.33,11.39,11.39,0,0,1-2.26-.22A12.37,12.37,0,0,1,2.8,22a13.25,13.25,0,0,1-1.69-.73L0,25.91a10.18,10.18,0,0,0,1.77.74,16.33,16.33,0,0,0,5,.79A13.15,13.15,0,0,0,11,26.82a8.07,8.07,0,0,0,3-1.67,6.56,6.56,0,0,0,1.79-2.44,7.37,7.37,0,0,0,.58-2.93,6.5,6.5,0,0,0-2.72-5.5Z"/><path class="cls-3" d="M116.53,1.18a3.53,3.53,0,0,1-.31,4.89,3.32,3.32,0,0,1-4.68-.21l-.09-.11a3.53,3.53,0,0,1,.31-4.89,3.32,3.32,0,0,1,4.69.23Z"/><path class="cls-2" d="M4.75,37.18v.07a.71.71,0,0,1,.17.36c0,.14-.11.27-.34.36H4.07c-.5,0-1,0-1.5-.08-1.49-.17-2.33-.51-2.5-1A39.59,39.59,0,0,1,.29,32.4a17,17,0,0,1,.33-2l.61-.16a6.81,6.81,0,0,1,.05.78q0,.66-.09,1.32L1,33.79a13,13,0,0,0-.08,1.39,7.09,7.09,0,0,0,.13,1.38A4.14,4.14,0,0,0,2.52,37,12.84,12.84,0,0,0,4,37.17Z"/><path class="cls-2" d="M6.83,38H6.69a1,1,0,0,1-1-.62,4,4,0,0,1-.22-.84v-.17c0-.39.32-.83.94-1.33a2,2,0,0,1,1.19-.37h.67q.33,0,.66.06a1.25,1.25,0,0,0-.66-1.18.78.78,0,0,0-.37-.09,1.39,1.39,0,0,0-.68.24l-.71.47A.29.29,0,0,1,6.25,34a.54.54,0,0,1-.1-.3.61.61,0,0,1,0-.19,3,3,0,0,1,1.79-.85,1.43,1.43,0,0,1,1.4.91,6.84,6.84,0,0,1,.35,1.6A9,9,0,0,0,10,36.81,6.21,6.21,0,0,1,6.83,38Zm1.86-2.48a3.17,3.17,0,0,0-.87-.15,1.71,1.71,0,0,0-1.45.76.87.87,0,0,0-.16.49.5.5,0,0,0,.38.53A.92.92,0,0,0,7,37.2,12.33,12.33,0,0,0,8.44,37,1.38,1.38,0,0,0,9,36.63L9,36A.71.71,0,0,0,8.69,35.52Z"/><path class="cls-2" d="M18.81,37a1.87,1.87,0,0,1-1.6.89,8.34,8.34,0,0,1-1,0H14.87a.84.84,0,0,1-.35-.68V37.1c0-.07,0,0,.08,0l.33.07a8,8,0,0,1,.81,0h.58c1,0,1.56-.24,1.62-.74q0-.33-1.65-.93l-1.18-.37a.66.66,0,0,1-.33-.24.7.7,0,0,1-.22-.51.54.54,0,0,1,0-.18c.15-.42.81-.82,2-1.19a7.13,7.13,0,0,1,1.29-.31l.07.54a2.1,2.1,0,0,1-.75.33,5.74,5.74,0,0,0-.91.31.67.67,0,0,0-.44.58c0,.18.33.34,1,.48.42.1.7.17.83.22a2,2,0,0,1,.8.53,1.36,1.36,0,0,1,.44.92A1,1,0,0,1,18.81,37Z"/><path class="cls-2" d="M20.83,38h-.2a1,1,0,0,1-1-.62,4,4,0,0,1-.22-.84v-.17c0-.39.31-.83,1-1.33a1.93,1.93,0,0,1,1.19-.37h.66c.22,0,.45,0,.67.06a1.28,1.28,0,0,0-.67-1.18.85.85,0,0,0-.38-.09,1.36,1.36,0,0,0-.67.24l-.72.47a.31.31,0,0,1-.24-.16.46.46,0,0,1-.11-.3.33.33,0,0,1,.06-.19A2.9,2.9,0,0,1,22,32.67a1.41,1.41,0,0,1,1.41.91,6.29,6.29,0,0,1,.31,1.6,7.55,7.55,0,0,0,.3,1.63A6.28,6.28,0,0,1,20.83,38Zm1.86-2.48a3.17,3.17,0,0,0-.87-.15,1.7,1.7,0,0,0-1.44.76.8.8,0,0,0-.18.49.5.5,0,0,0,.4.53.9.9,0,0,0,.36.05A12.49,12.49,0,0,0,22.45,37a1.29,1.29,0,0,0,.58-.33L23,36A.71.71,0,0,0,22.69,35.52Z"/><path class="cls-2" d="M25.69,33l-.11,1.76v1.48a11.84,11.84,0,0,0,.1,1.68l-.37.13a1.44,1.44,0,0,0-.32.23,13.12,13.12,0,0,1-.15-2.17c0-1.1.09-2.73.29-4.89h.15a.9.9,0,0,1,.51.24A7.72,7.72,0,0,0,25.69,33Z"/><path class="cls-2" d="M31.24,37.87l-.37-.42a2.64,2.64,0,0,1-.36-.66c-.1.06-.34.21-.71.46a3.76,3.76,0,0,1-.76.42,2.15,2.15,0,0,1-.9.2H27.9c-.85,0-1.28-1.26-1.28-3.79v-.45c0-.32.25-.48.73-.48a4.15,4.15,0,0,1,.16,1.26,5.05,5.05,0,0,0,.08,1.38,1.81,1.81,0,0,0,.5,1.12.32.32,0,0,0,.23.06,2.27,2.27,0,0,0,1.51-.79,2.73,2.73,0,0,0,.69-2v-.91c0-.16.06-.14.17-.2A.47.47,0,0,1,31,33a.59.59,0,0,1,.23.05q.21.13.21.78a5.52,5.52,0,0,1-.06.81c-.08.73-.12,1.14-.12,1.2v.11a2.27,2.27,0,0,0,.13.77,1.08,1.08,0,0,0,.34.45,5.12,5.12,0,0,1,.44.49A1,1,0,0,1,31.24,37.87Z"/><path class="cls-2" d="M36.3,38a1.59,1.59,0,0,0-.66.27V37.6a2.86,2.86,0,0,1-.81.22c-.65.09-1,.13-1.06.13a1.34,1.34,0,0,1-1.21-.69,2.68,2.68,0,0,1-.38-1.44,2.36,2.36,0,0,1,1.07-2.14,3.85,3.85,0,0,1,2.07-.5,14.85,14.85,0,0,1-.17-2,.29.29,0,0,1,.25-.09.64.64,0,0,1,.5.24c0,.06.1,1,.27,2.77a25.74,25.74,0,0,1,.17,2.77C36.34,37.18,36.32,37.59,36.3,38Zm-.77-3.08a2.38,2.38,0,0,0-.15-.75h-.5a2.88,2.88,0,0,0-1.5.47,1,1,0,0,0-.38.61,2.87,2.87,0,0,0-.11.77,1,1,0,0,0,.46.91.87.87,0,0,0,.53.22,2.22,2.22,0,0,0,1.67-.65C35.55,35.94,35.54,35.43,35.53,34.89Z"/><path class="cls-2" d="M46.55,37.38a3.12,3.12,0,0,1-.71.25,9.73,9.73,0,0,1-2.52.27h-.5A2.21,2.21,0,0,1,41.15,37a2,2,0,0,1-.34-1.19,2.67,2.67,0,0,1,1.65-2.65,4.12,4.12,0,0,1,1.72-.39,1.45,1.45,0,0,1,1.06.5,2.55,2.55,0,0,1,.53.84v.22l-.07.06A13.92,13.92,0,0,1,41.57,36V36a1,1,0,0,0,.15.47.68.68,0,0,0,.32.35,3.24,3.24,0,0,0,1.34.26,4.78,4.78,0,0,0,1-.1l1.09-.21a7,7,0,0,1,.92-.12.11.11,0,0,1,.12.06v.14Zm-2-3.26c-.06-.38-.32-.56-.76-.56a2.34,2.34,0,0,0-.45.07,2.7,2.7,0,0,0-1.45.9.88.88,0,0,0-.25.53.26.26,0,0,0,.1.2,4.51,4.51,0,0,0,1-.33l1-.46.61-.26Z"/><path class="cls-2" d="M51.15,37a1.85,1.85,0,0,1-1.59.89,8.34,8.34,0,0,1-1,0H47.22a.84.84,0,0,1-.35-.68V37.1c0-.07,0,0,.08,0l.33.07s.32,0,.81,0h.6c1,0,1.56-.24,1.63-.74,0-.22-.53-.53-1.66-.93l-1.2-.37a.66.66,0,0,1-.33-.24.74.74,0,0,1-.21-.51v-.18c.15-.42.82-.82,2-1.19a7.13,7.13,0,0,1,1.29-.31l.07.54a2,2,0,0,1-.76.33,5.63,5.63,0,0,0-.9.31.65.65,0,0,0-.43.58c0,.18.32.34,1,.48a7.62,7.62,0,0,1,.82.22,2,2,0,0,1,.81.53,1.3,1.3,0,0,1,.42.92A.85.85,0,0,1,51.15,37Z"/><path class="cls-2" d="M59.43,35.28a1.12,1.12,0,0,1-.18.53,2.6,2.6,0,0,1-1.83.82,2.89,2.89,0,0,1-.72,0c0,.14.1.92.26,2.33a.54.54,0,0,1-.4.17h-.37a28,28,0,0,1-.5-3.77,19.38,19.38,0,0,1,0-2.41,5.75,5.75,0,0,1,1.54-.24,2.46,2.46,0,0,1,2,.77,1.69,1.69,0,0,1,.27.9A3.91,3.91,0,0,1,59.43,35.28Zm-1-1.42a2.54,2.54,0,0,0-1.34-.38,2.29,2.29,0,0,0-.58.11v.69c0,.25.05.7.13,1.46a5.61,5.61,0,0,0,.82,0,1.53,1.53,0,0,0,1-.48c.11-.11.15-.38.12-.83s-.07-.52-.17-.57Z"/><path class="cls-2" d="M61.59,38h-.18a1,1,0,0,1-1-.62,3.49,3.49,0,0,1-.23-.84v-.17c0-.39.32-.83,1-1.33a1.93,1.93,0,0,1,1.19-.37H63q.33,0,.66.06A1.28,1.28,0,0,0,63,33.55a.85.85,0,0,0-.38-.09,1.39,1.39,0,0,0-.68.24l-.71.47A.29.29,0,0,1,61,34a.63.63,0,0,1-.1-.3.33.33,0,0,1,.06-.19,2.93,2.93,0,0,1,1.72-.8,1.41,1.41,0,0,1,1.4.91,5.92,5.92,0,0,1,.36,1.55,9,9,0,0,0,.3,1.63A6.24,6.24,0,0,1,61.59,38Zm1.87-2.48a3.25,3.25,0,0,0-.88-.15,1.7,1.7,0,0,0-1.44.76.79.79,0,0,0-.17.49.5.5,0,0,0,.38.53,1,1,0,0,0,.34,0,12.33,12.33,0,0,0,1.48-.24,1.29,1.29,0,0,0,.58-.33L63.69,36A.73.73,0,0,0,63.46,35.52Z"/><path class="cls-2" d="M70.38,33.79a1.41,1.41,0,0,0-.78-.34,2.22,2.22,0,0,0-1.14.09,3.35,3.35,0,0,0-1,.66,4.08,4.08,0,0,0-1,1.3,5.57,5.57,0,0,0,0,1c0,.19.06.59.13,1.18a4.32,4.32,0,0,0,.09.71H66a9.73,9.73,0,0,0-.15-1.25l-.2-1.53a16.18,16.18,0,0,1-.18-2.2h.18a.84.84,0,0,1,.29-.13.25.25,0,0,1,.17,0l.07,1A3.55,3.55,0,0,1,69,32.49a3.84,3.84,0,0,1,.83,0,1.72,1.72,0,0,1,.77.19,4.26,4.26,0,0,1,.06.5C70.6,33.6,70.52,33.78,70.38,33.79Z"/><path class="cls-2" d="M72.09,38H71.9a1,1,0,0,1-1-.62,4,4,0,0,1-.23-.84v-.17c0-.39.31-.83.94-1.33a2,2,0,0,1,1.19-.37h.67c.22,0,.45,0,.67.06a1.29,1.29,0,0,0-.67-1.18.85.85,0,0,0-.38-.09,1.39,1.39,0,0,0-.68.24l-.72.48a.29.29,0,0,1-.25-.16.48.48,0,0,1-.11-.3.44.44,0,0,1,.07-.19,2.9,2.9,0,0,1,1.77-.85,1.41,1.41,0,0,1,1.41.91,6.09,6.09,0,0,1,.33,1.58,9,9,0,0,0,.3,1.63A6.21,6.21,0,0,1,72.09,38Zm1.85-2.48a3.17,3.17,0,0,0-.86-.15,1.71,1.71,0,0,0-1.45.76.79.79,0,0,0-.17.49.48.48,0,0,0,.39.53.9.9,0,0,0,.36.05A12.49,12.49,0,0,0,73.7,37a1.21,1.21,0,0,0,.58-.33V36A.74.74,0,0,0,73.94,35.52Z"/><path class="cls-2" d="M84.63,33c.07,0,.1.12.1.28,0,.33-.1.49-.29.49l-2,.35a4.17,4.17,0,0,1,0,.5v.89a2.36,2.36,0,0,0,.62,1.77.43.43,0,0,0,.28.11,3.35,3.35,0,0,0,.62-.17,1.43,1.43,0,0,1,.41-.09h.13a1.43,1.43,0,0,1,.13.49,1.85,1.85,0,0,1-1.53.52,1,1,0,0,1-.61-.26,3.49,3.49,0,0,1-.8-2.38V34.17a9.54,9.54,0,0,0-1.17.2,4.38,4.38,0,0,0-1.11.42,1.13,1.13,0,0,1-.17-.39L79.11,34a1.78,1.78,0,0,1,.76-.36c.18,0,.5-.1,1-.16a4.9,4.9,0,0,0,1-.19c.09-.33.16-.62.21-.86s.14-.67.18-1c.06-.12.19-.17.39-.17a.81.81,0,0,1,.31.06,5.74,5.74,0,0,1-.21,1,2.38,2.38,0,0,0-.1.65.81.81,0,0,0,0,.22,12.73,12.73,0,0,0,1.51-.2Z"/><path class="cls-2" d="M91.49,36.44A2,2,0,0,1,89.23,38a6.75,6.75,0,0,1-2-.22,2.33,2.33,0,0,1-1.38-1,3,3,0,0,1-.46-1.7,2.12,2.12,0,0,1,.37-1.24A2.72,2.72,0,0,1,88,32.54,4.9,4.9,0,0,1,90,33a2.48,2.48,0,0,1,1.18,1.08,3.12,3.12,0,0,1,.4,1.58A3.21,3.21,0,0,1,91.49,36.44Zm-.71-.23a1.31,1.31,0,0,0,.11-.52,2,2,0,0,0-.38-1.11,2.62,2.62,0,0,0-.77-.75,3.32,3.32,0,0,0-1.7-.54,1.39,1.39,0,0,0-1.47,1,4.06,4.06,0,0,0-.28,1.18,1.58,1.58,0,0,0,.12.61,1.33,1.33,0,0,0,1.12.86L88,37h.16q.94.12,1.11.12a1.63,1.63,0,0,0,1.55-.94Z"/><path class="cls-2" d="M96.32,38a1.59,1.59,0,0,0-.66.27V37.6a3.24,3.24,0,0,1-.81.22c-.65.09-1,.13-1.06.13a1.34,1.34,0,0,1-1.21-.69,2.68,2.68,0,0,1-.38-1.44,2.36,2.36,0,0,1,1.07-2.14,3.93,3.93,0,0,1,2.06-.55,13.36,13.36,0,0,1-.15-2,.27.27,0,0,1,.24-.09.66.66,0,0,1,.51.24c0,.06.1,1,.27,2.77.11,1.1.16,2,.16,2.77C96.36,37.18,96.34,37.59,96.32,38Zm-.78-3.08a2.12,2.12,0,0,0-.14-.75h-.5a2.88,2.88,0,0,0-1.5.47,1.07,1.07,0,0,0-.38.61,3.32,3.32,0,0,0-.1.77,1,1,0,0,0,.45.91.87.87,0,0,0,.53.22,2.28,2.28,0,0,0,1.68-.65C95.58,35.94,95.56,35.43,95.54,34.89Z"/><path class="cls-2" d="M103.34,36.44A2,2,0,0,1,101.09,38a6.75,6.75,0,0,1-2-.22,2.29,2.29,0,0,1-1.38-1,3.1,3.1,0,0,1-.47-1.7,2.21,2.21,0,0,1,.38-1.24,2.72,2.72,0,0,1,2.29-1.31,5.08,5.08,0,0,1,1.91.48A2.45,2.45,0,0,1,103,34.1a3.11,3.11,0,0,1,.39,1.58A3.21,3.21,0,0,1,103.34,36.44Zm-.72-.23a1.17,1.17,0,0,0,.12-.52,2,2,0,0,0-.38-1.11,2.62,2.62,0,0,0-.77-.75,3.35,3.35,0,0,0-1.71-.54,1.41,1.41,0,0,0-1.47,1,4,4,0,0,0-.27,1.18,1.78,1.78,0,0,0,.11.61,1.37,1.37,0,0,0,1.14.86l.42.06H100c.64.08,1,.12,1.13.12a1.61,1.61,0,0,0,1.53-.94Z"/><path class="cls-2" d="M108.41,37a1.87,1.87,0,0,1-1.59.89,8.34,8.34,0,0,1-1,0h-1.33a.84.84,0,0,1-.35-.68V37.1h.08l.33.07s.32,0,.81,0h.58c1,0,1.57-.24,1.63-.74,0-.22-.54-.53-1.65-.93l-1.23-.37a.73.73,0,0,1-.33-.24.74.74,0,0,1-.21-.51v-.18c.15-.42.82-.82,2-1.19a7.13,7.13,0,0,1,1.29-.31l.07.54a2.1,2.1,0,0,1-.75.33,5.74,5.74,0,0,0-.91.31.68.68,0,0,0-.43.58c0,.18.32.34,1,.48a7.79,7.79,0,0,1,.83.22,1.88,1.88,0,0,1,.8.53,1.36,1.36,0,0,1,.44.92A1,1,0,0,1,108.41,37Z"/><path class="cls-1" d="M181.55,20.54a3.26,3.26,0,1,0,3.14,3.38V23.8A3.22,3.22,0,0,0,181.55,20.54Zm0,6.1a2.84,2.84,0,1,1,2.77-2.91v.07a2.8,2.8,0,0,1-2.76,2.84Z"/><path class="cls-1" d="M180.11,25.7V21.9h1.64a2.16,2.16,0,0,1,.76.11.85.85,0,0,1,.41.36,1.13,1.13,0,0,1,.15.57,1,1,0,0,1-.25.68A1.3,1.3,0,0,1,182,24a1.81,1.81,0,0,1,.29.19,2.8,2.8,0,0,1,.41.5l.64,1h-.61l-.49-.79c-.14-.23-.26-.4-.35-.52l-.23-.17a.94.94,0,0,0-.23-.1h-.84v1.69Zm.49-2.12h1.09a1.88,1.88,0,0,0,.53-.07.55.55,0,0,0,.29-.23.67.67,0,0,0,.1-.34.57.57,0,0,0-.2-.44.86.86,0,0,0-.6-.18h-1.17Z"/></g></g></g></svg>